<svg id="Layer_1" data-name="Layer 1" xmlns="http://www.w3.org/2000/svg" viewBox="0 0 600.86 387.72"><defs><style>.cls-1{fill:#fff;}</style></defs><title>logo</title><path class="cls-1" d="M415.6,242.76L361.93,86.44l2.68-8.63L466.89,2l12,7.72-48.61,232.1Zm-37.39-156L421,211.5,459.84,26.3Z" transform="translate(0 -0.14)"/><path class="cls-1" d="M304.4,206.34H291.16L222.8,87.77l5.13-11.33,68.36-13.61h3.05L367.7,77.05l5.06,11.33Zm-63-117,56.42,97.84,56.41-97.34L297.75,78.14Z" transform="translate(0 -0.14)"/><path class="cls-1" d="M181.41,242.76l-14.72-.9-48.61-230,12-7.79L232.32,77.74l2.76,8.69ZM137.13,28L175.93,211.6,218.77,86.84Z" transform="translate(0 -0.14)"/><path class="cls-1" d="M292.75,387.86L168.41,245.3,171.67,233l124.35-43,5.09,0,119.22,43,3.28,12.11L304.39,387.74ZM187.4,243.8l111,127.26L404.85,243.76,298.46,205.42Z" transform="translate(0 -0.14)"/><rect class="cls-1" x="-76.35" y="171.33" width="328.09" height="15.3" transform="translate(-105.99 225.84) rotate(-77.54)"/><path class="cls-1" d="M305,383H290V77.63L129.59,16.74,21.89,192.57l60.84-6.69,4.4,0.83,89.36,46.86,1.3,12.7L57.13,345.07,45,341.54,0,204.25l0.75-6.38L120,3.34l9.24-3.16,171.12,65L305,72.35V383ZM17.48,208.45l38.6,117.71,103.08-84.41-77-40.4Z" transform="translate(0 -0.14)"/><rect class="cls-1" x="505.52" y="14.93" width="15.3" height="328.09" transform="translate(-26.54 114.85) rotate(-12.47)"/><path class="cls-1" d="M543.73,345.07L423.06,246.26l1.29-12.7,89.34-46.86,4.39-.83,60.84,6.69L471.05,16.65,300.39,78.41,295.18,64,471.71,0.14l9.12,3.2L600.11,197.87l0.75,6.38-45,137.28Zm-102-103.33,103.09,84.42,38.6-117.71-64.65-7.11Z" transform="translate(0 -0.14)"/></svg>